<svg xmlns="http://www.w3.org/2000/svg" version="1.1" xmlns:xlink="http://www.w3.org/1999/xlink" xmlns:svgjs="http://svgjs.dev/svgjs" viewBox="0 0 1000 750"><rect width="1000" height="750" fill="#000000"></rect><g transform="matrix(0.834,0,0,0.834,82.49454545454546,115.4193570850203)"><svg viewBox="0 0 396 247" data-background-color="#ffffff" preserveAspectRatio="xMidYMid meet" height="623" width="1000" xmlns="http://www.w3.org/2000/svg" xmlns:xlink="http://www.w3.org/1999/xlink"><g id="tight-bounds" transform="matrix(1,0,0,1,0.2400000000000091,-0.09999999999999432)"><svg viewBox="0 0 395.52 247.2" height="247.2" width="395.52"><g><svg></svg></g><g><svg viewBox="0 0 395.52 247.2" height="247.2" width="395.52"><g transform="matrix(1,0,0,1,75.54432,75.8339152553328)"><svg viewBox="0 0 244.43135999999998 95.5321694893344" height="95.5321694893344" width="244.43135999999998"><g><svg viewBox="0 0 244.43135999999998 95.5321694893344" height="95.5321694893344" width="244.43135999999998"><g><svg viewBox="0 0 244.43135999999998 95.5321694893344" height="95.5321694893344" width="244.43135999999998"><g id="textblocktransform"><svg viewBox="0 0 244.43135999999998 95.5321694893344" height="95.5321694893344" width="244.43135999999998" id="textblock"><g><rect width="244.43135999999998" height="70.188373012444" fill="none" stroke-width="5.573187777599999" stroke="#ffffff" data-fill-palette-color="none" data-stroke-palette-color="tertiary"></rect><rect width="244.43135999999998" height="25.34379647689039" y="70.188373012444" fill="#ffffff" data-fill-palette-color="tertiary"></rect></g><g><svg viewBox="0 0 244.43135999999998 70.188373012444" height="70.188373012444" width="244.43135999999998"><g transform="matrix(1,0,0,1,14.5894968,14.589496800000003)"><svg width="215.2523664" viewBox="7.08 -36.89 196.17 37.38" height="41.009379412444" data-palette-color="#ff851b"><path d="M7.08 0L7.08-34.69 18.53-34.69Q19.34-34.69 19.86-34.68 20.39-34.67 21.39-34.58 22.39-34.5 23.1-34.34 23.8-34.18 24.77-33.85 25.73-33.52 26.42-33.08 27.1-32.64 27.84-31.92 28.59-31.2 29.04-30.32 29.49-29.44 29.79-28.2 30.08-26.95 30.08-25.46L30.08-25.46Q30.08-23.32 29.59-21.61 29.1-19.9 28.33-18.75 27.56-17.6 26.34-16.77 25.12-15.94 23.93-15.49 22.73-15.04 21.11-14.78 19.48-14.53 18.2-14.45 16.92-14.38 15.23-14.38L15.23-14.38Q13.57-14.38 11.23-14.55L11.23-14.55 11.23 0 7.08 0ZM11.23-31.03L11.23-18.21Q13.57-18.02 15.67-18.02L15.67-18.02Q16.87-18.02 17.68-18.04 18.48-18.07 19.65-18.21 20.83-18.36 21.61-18.62 22.39-18.87 23.27-19.38 24.15-19.9 24.67-20.59 25.2-21.29 25.54-22.35 25.88-23.41 25.88-24.78L25.88-24.78Q25.88-26.2 25.51-27.28 25.15-28.37 24.45-29.03 23.75-29.69 22.99-30.11 22.22-30.54 21.13-30.73 20.04-30.91 19.23-30.97 18.41-31.03 17.29-31.03L17.29-31.03 11.23-31.03ZM47.6-24.58L47.6-24.58Q52.61-24.58 55.84-21.39 59.08-18.19 59.08-12.55L59.08-12.55Q59.08-6.57 55.77-3.04 52.46 0.49 47.21 0.49L47.21 0.49Q42.21 0.49 39.04-2.82 35.86-6.13 35.86-11.79L35.86-11.79Q35.86-17.63 39.1-21.11 42.33-24.58 47.6-24.58ZM47.26-21.17L47.26-21.17Q44.26-21.17 42.01-18.85 39.77-16.53 39.77-12.48L39.77-12.48Q39.77-8.45 41.97-5.69 44.16-2.93 47.65-2.93L47.65-2.93Q50.88-2.93 53.02-5.37 55.17-7.81 55.17-11.74L55.17-11.74Q55.17-13.99 54.48-15.82 53.78-17.65 52.65-18.8 51.51-19.95 50.12-20.56 48.73-21.17 47.26-21.17ZM69.45-24.12L70.21-22.31Q73.26-24.58 76.95-24.58L76.95-24.58Q79.49-24.58 81.56-23.63L81.56-23.63 80.34-20.43Q78.44-21.17 76.39-21.17L76.39-21.17Q73.33-21.17 70.65-19.48L70.65-19.48 70.65 0 66.65 0 66.65-24.12 69.45-24.12ZM98.45-3.15L99.02-0.42Q95.48 0.49 93.5 0.49 91.52 0.49 90.15-0.15 88.79-0.78 88.08-1.95 87.37-3.13 87.07-4.48 86.76-5.83 86.76-7.59L86.76-7.59 86.76-20.97 83.51-20.97 83.51-24.12 86.76-24.12 86.76-31.03 90.76-31.03 90.76-24.12 98.11-24.12 98.11-20.97 90.76-20.97 90.76-7.64Q90.76-2.64 94.72-2.64L94.72-2.64Q95.43-2.64 98.45-3.15L98.45-3.15ZM116.88-31.54L116.88-31.54Q115.44-31.54 114.39-31.14 113.34-30.74 112.82-30.21 112.29-29.69 111.99-28.94 111.68-28.2 111.62-27.72 111.56-27.25 111.56-26.73L111.56-26.73 111.56-24.12 119.64-24.12 119.64-20.97 111.56-20.97 111.56 0 107.51 0 107.51-20.97 104.02-20.97 104.02-24.12 107.51-24.12 107.51-26.56Q107.51-29.74 108.46-31.4L108.46-31.4Q109.41-33.08 111.27-33.98 113.12-34.89 115.57-34.89L115.57-34.89Q118.18-34.89 121.35-33.94L121.35-33.94 120.74-30.96Q118.47-31.54 116.88-31.54ZM135.66-24.58L135.66-24.58Q140.66-24.58 143.9-21.39 147.13-18.19 147.13-12.55L147.13-12.55Q147.13-6.57 143.82-3.04 140.51 0.49 135.27 0.49L135.27 0.49Q130.26 0.49 127.09-2.82 123.91-6.13 123.91-11.79L123.91-11.79Q123.91-17.63 127.15-21.11 130.38-24.58 135.66-24.58ZM135.31-21.17L135.31-21.17Q132.31-21.17 130.07-18.85 127.82-16.53 127.82-12.48L127.82-12.48Q127.82-8.45 130.02-5.69 132.21-2.93 135.71-2.93L135.71-2.93Q138.93-2.93 141.08-5.37 143.22-7.81 143.22-11.74L143.22-11.74Q143.22-13.99 142.53-15.82 141.83-17.65 140.7-18.8 139.56-19.95 138.17-20.56 136.78-21.17 135.31-21.17ZM155.19 0L155.19-36.89 159.19-36.89 159.19 0 155.19 0ZM168.1-30.08L168.1-34.69 172.83-34.69 172.83-30.08 168.1-30.08ZM168.46 0L168.46-24.12 172.47-24.12 172.47 0 168.46 0ZM191.78-24.58L191.78-24.58Q196.78-24.58 200.02-21.39 203.25-18.19 203.25-12.55L203.25-12.55Q203.25-6.57 199.94-3.04 196.64 0.49 191.39 0.49L191.39 0.49Q186.38 0.49 183.21-2.82 180.03-6.13 180.03-11.79L180.03-11.79Q180.03-17.63 183.27-21.11 186.5-24.58 191.78-24.58ZM191.44-21.17L191.44-21.17Q188.43-21.17 186.19-18.85 183.94-16.53 183.94-12.48L183.94-12.48Q183.94-8.45 186.14-5.69 188.33-2.93 191.83-2.93L191.83-2.93Q195.05-2.93 197.2-5.37 199.35-7.81 199.35-11.74L199.35-11.74Q199.35-13.99 198.65-15.82 197.95-17.65 196.82-18.8 195.68-19.95 194.29-20.56 192.9-21.17 191.44-21.17Z" opacity="1" transform="matrix(1,0,0,1,0,0)" fill="#ffffff" class="wordmark-text-0" data-fill-palette-color="primary" id="text-0"></path></svg></g></svg></g></svg></g></svg></g></svg></g></svg></g><path d="M230.841 69.834L230.841 5.863 0 5.863 0 241.337 230.841 241.337 230.841 177.366 228.054 177.366 228.054 238.551 2.787 238.551 2.787 8.649 228.054 8.649 228.054 69.834Z" fill="#ffffff" stroke="transparent" data-fill-palette-color="primary"></path></svg></g><defs></defs></svg><rect width="395.52" height="247.2" fill="none" stroke="none" visibility="hidden"></rect></g></svg></g></svg>